<svg id="Grupo_11136" data-name="Grupo 11136" xmlns="http://www.w3.org/2000/svg" xmlns:xlink="http://www.w3.org/1999/xlink" width="270.614" height="379.646" viewBox="0 0 270.614 379.646">
  <defs>
    <clipPath id="clip-path">
      <rect id="Retângulo_7453" data-name="Retângulo 7453" width="270.614" height="379.645" fill="none"/>
    </clipPath>
  </defs>
  <g id="Grupo_11135" data-name="Grupo 11135" clip-path="url(#clip-path)">
    <path id="Caminho_31669" data-name="Caminho 31669" d="M263.911,117.533A117.533,117.533,0,1,1,146.378,0,117.533,117.533,0,0,1,263.911,117.533" transform="translate(-9.988)" fill="#232e78"/>
    <path id="Caminho_31670" data-name="Caminho 31670" d="M203.377,53.28a9.8,9.8,0,1,0-9.8-9.8,9.807,9.807,0,0,0,9.8,9.8m0-15.918a6.122,6.122,0,1,1-6.122,6.122,6.129,6.129,0,0,1,6.122-6.122" transform="translate(-67.033 -11.666)" fill="aqua"/>
    <rect id="Retângulo_7445" data-name="Retângulo 7445" width="3.673" height="5.51" transform="translate(134.507 48.962)" fill="aqua"/>
    <rect id="Retângulo_7446" data-name="Retângulo 7446" width="3.673" height="6.429" transform="translate(134.507 60.9)" fill="aqua"/>
    <path id="Caminho_31671" data-name="Caminho 31671" d="M347.606,177.917a9.8,9.8,0,1,0,9.8,9.8,9.807,9.807,0,0,0-9.8-9.8m0,15.918a6.122,6.122,0,1,1,6.122-6.122,6.129,6.129,0,0,1-6.122,6.122" transform="translate(-116.977 -61.609)" fill="aqua"/>
    <rect id="Retângulo_7447" data-name="Retângulo 7447" width="5.51" height="3.673" transform="translate(207.976 124.267)" fill="aqua"/>
    <rect id="Retângulo_7448" data-name="Retângulo 7448" width="6.429" height="3.673" transform="translate(195.118 124.267)" fill="aqua"/>
    <path id="Caminho_31672" data-name="Caminho 31672" d="M305.364,95.522a9.768,9.768,0,0,0,6.927-2.864h0a9.808,9.808,0,1,0-6.927,2.865M301.035,81.4a6.123,6.123,0,1,1,0,8.659,6.1,6.1,0,0,1,0-8.659" transform="translate(-102.351 -26.296)" fill="aqua"/>
    <rect id="Retângulo_7449" data-name="Retângulo 7449" width="5.51" height="3.673" transform="translate(185.696 74.154) rotate(-45)" fill="aqua"/>
    <line id="Linha_220" data-name="Linha 220" x2="46.323" transform="translate(87.823 190.992)" fill="none" stroke="aqua" stroke-linecap="round" stroke-linejoin="round" stroke-width="6.321"/>
    <line id="Linha_221" data-name="Linha 221" y1="23.787" transform="translate(157.932 143.732)" fill="none" stroke="aqua" stroke-linecap="round" stroke-linejoin="round" stroke-width="6.321"/>
    <path id="Caminho_31673" data-name="Caminho 31673" d="M97.953,223.1V168a7.513,7.513,0,0,1,7.517-7.51h47.574" transform="translate(-33.919 -55.576)" fill="none" stroke="aqua" stroke-linecap="round" stroke-linejoin="round" stroke-width="6.321"/>
    <rect id="Retângulo_7450" data-name="Retângulo 7450" width="31.299" height="11.738" transform="translate(95.335 179.254)" fill="none" stroke="aqua" stroke-linecap="round" stroke-linejoin="round" stroke-width="6.321"/>
    <path id="Caminho_31674" data-name="Caminho 31674" d="M191.855,256.252h-93.9v4.226a7.512,7.512,0,0,0,7.512,7.512h78.875a7.512,7.512,0,0,0,7.512-7.512Z" transform="translate(-33.92 -88.735)" fill="none" stroke="aqua" stroke-linecap="round" stroke-linejoin="round" stroke-width="6.321"/>
    <path id="Caminho_31675" data-name="Caminho 31675" d="M254.7,148.625a1.441,1.441,0,0,0,1.426-1.3,31.513,31.513,0,0,0,.186-3.415c0-.988-.05-1.963-.142-2.927a1.438,1.438,0,0,0-1.429-1.305h-3.152a6.139,6.139,0,0,1-5.738-3.867q-.115-.3-.238-.586a6.139,6.139,0,0,1,1.357-6.71l2.318-2.318a1.44,1.44,0,0,0,.093-1.925,31.509,31.509,0,0,0-4.455-4.5,1.44,1.44,0,0,0-1.938.083l-2.242,2.242a6.14,6.14,0,0,1-6.784,1.326q-.34-.149-.688-.287a6.12,6.12,0,0,1-3.792-5.71v-3.22a1.44,1.44,0,0,0-1.3-1.428,30.842,30.842,0,0,0-6.342,0,1.439,1.439,0,0,0-1.3,1.428v3.22a6.12,6.12,0,0,1-3.792,5.71q-.347.138-.688.287a6.141,6.141,0,0,1-6.784-1.326l-2.242-2.242a1.441,1.441,0,0,0-1.938-.083,31.511,31.511,0,0,0-4.455,4.5,1.44,1.44,0,0,0,.093,1.925l2.318,2.318a6.139,6.139,0,0,1,1.357,6.71c-.082.193-.161.39-.238.586a6.138,6.138,0,0,1-5.738,3.867h-3.152a1.438,1.438,0,0,0-1.429,1.305c-.092.964-.142,1.939-.142,2.926a31.516,31.516,0,0,0,.186,3.416,1.441,1.441,0,0,0,1.426,1.3h3.3a6.137,6.137,0,0,1,5.7,3.765c.061.15.124.3.188.446a6.166,6.166,0,0,1-1.313,6.811l-2.244,2.244a1.441,1.441,0,0,0-.083,1.938,31.509,31.509,0,0,0,4.5,4.455,1.441,1.441,0,0,0,1.926-.093l2.315-2.315a6.192,6.192,0,0,1,6.734-1.348l.225.092a6.4,6.4,0,0,1,3.968,5.922v3.081a1.441,1.441,0,0,0,1.3,1.428,30.782,30.782,0,0,0,6.342,0,1.438,1.438,0,0,0,1.3-1.427V170.4a6.192,6.192,0,0,1,3.836-5.725l.212-.087a6.428,6.428,0,0,1,6.99,1.4l2.2,2.2a1.441,1.441,0,0,0,1.926.093,31.474,31.474,0,0,0,4.5-4.455,1.441,1.441,0,0,0-.083-1.938l-2.244-2.244a6.166,6.166,0,0,1-1.313-6.811q.1-.222.188-.446a6.136,6.136,0,0,1,5.7-3.765Z" transform="translate(-67.079 -38.996)" fill="none" stroke="#fff" stroke-linecap="round" stroke-linejoin="round" stroke-width="6.321"/>
    <circle id="Elipse_11" data-name="Elipse 11" cx="8.943" cy="8.943" r="8.943" transform="translate(147.462 112.008) rotate(-79.099)" fill="none" stroke="#fff" stroke-linecap="round" stroke-linejoin="round" stroke-width="6.321"/>
    <path id="Caminho_31676" data-name="Caminho 31676" d="M.147,472.761,9.38,461.732a30.828,30.828,0,0,0,19.408,7.182c4.445,0,6.84-1.539,6.84-4.1v-.171c0-2.48-1.966-3.848-10.09-5.729C12.8,456,2.968,452.414,2.968,440.1v-.171c0-11.115,8.807-19.151,23.169-19.151,10.173,0,18.126,2.736,24.624,7.951l-8.294,11.713c-5.472-3.847-11.456-5.9-16.757-5.9-4.018,0-5.985,1.709-5.985,3.848v.171c0,2.736,2.053,3.933,10.344,5.814,13.766,2.992,22.315,7.438,22.315,18.638v.171c0,12.226-9.661,19.493-24.2,19.493-10.6,0-20.689-3.335-28.041-9.918" transform="translate(-0.051 -145.708)" fill="#232e78"/>
    <rect id="Retângulo_7451" data-name="Retângulo 7451" width="16.672" height="59.847" transform="translate(60.714 276.098)" fill="#232e78"/>
    <path id="Caminho_31677" data-name="Caminho 31677" d="M131.98,451.81v-.171c0-17.441,13.68-31.12,32.233-31.12,10.516,0,17.953,3.249,24.279,8.721l-9.745,11.713c-4.275-3.592-8.55-5.643-14.45-5.643-8.635,0-15.3,7.267-15.3,16.415v.171c0,9.661,6.754,16.586,16.245,16.586a16.915,16.915,0,0,0,9.576-2.48v-7.267h-11.8V446.595h27.53v26.931a40.466,40.466,0,0,1-25.992,9.234c-18.638,0-32.574-12.824-32.574-30.95" transform="translate(-45.702 -145.618)" fill="#232e78"/>
    <path id="Caminho_31678" data-name="Caminho 31678" d="M253.85,421.7h15.988l25.477,60.274H277.533l-4.36-10.687H250.089l-4.275,10.687H228.373Zm14.535,36.678-6.669-17.014-6.754,17.014Z" transform="translate(-79.081 -146.025)" fill="#232e78"/>
    <path id="Caminho_31679" data-name="Caminho 31679" d="M339.676,422.35H387.81v14.107H356.09v9.063h28.727V458.6H356.09v9.49h32.147V482.2H339.676Z" transform="translate(-117.623 -146.252)" fill="#232e78"/>
    <path id="Caminho_31680" data-name="Caminho 31680" d="M2.37,535.192a1.542,1.542,0,0,0,.5.632,3.689,3.689,0,0,0,1,.52,11.955,11.955,0,0,0,1.643.441A7.128,7.128,0,0,1,8.5,538.033a2.7,2.7,0,0,1,.96,2.2A3.2,3.2,0,0,1,8.3,542.743a3.807,3.807,0,0,1-1.3.692,5.444,5.444,0,0,1-1.66.243,7.267,7.267,0,0,1-2.655-.468A7.511,7.511,0,0,1,.4,541.759l.847-1a7.128,7.128,0,0,0,1.921,1.288,5.505,5.505,0,0,0,2.23.424,3.116,3.116,0,0,0,1.962-.571,1.817,1.817,0,0,0,.735-1.507,2.023,2.023,0,0,0-.139-.771A1.551,1.551,0,0,0,7.469,539a3.476,3.476,0,0,0-.963-.5,12.419,12.419,0,0,0-1.568-.433,12.48,12.48,0,0,1-1.812-.52,4.492,4.492,0,0,1-1.274-.709,2.616,2.616,0,0,1-.746-.97,3.283,3.283,0,0,1-.243-1.317,3.016,3.016,0,0,1,.295-1.334,3.094,3.094,0,0,1,.83-1.048,4.038,4.038,0,0,1,1.262-.693,4.843,4.843,0,0,1,1.59-.25,6.711,6.711,0,0,1,2.327.366A7.054,7.054,0,0,1,9.1,532.7l-.8,1.054a5.9,5.9,0,0,0-1.7-1,5.186,5.186,0,0,0-1.79-.311,3.425,3.425,0,0,0-1.064.156,2.709,2.709,0,0,0-.813.416,1.811,1.811,0,0,0-.52.624,1.741,1.741,0,0,0-.181.779,2.064,2.064,0,0,0,.139.78" transform="translate(-0.138 -183.954)" fill="#333"/>
    <path id="Caminho_31681" data-name="Caminho 31681" d="M19.551,531.095h1.521v1.47H19.551Zm.086,3.424h1.332v8.94H19.637Z" transform="translate(-6.77 -183.908)" fill="#333"/>
    <path id="Caminho_31682" data-name="Caminho 31682" d="M33.27,543.816a2.588,2.588,0,0,1-.674.838,2.956,2.956,0,0,1-1,.528,4.168,4.168,0,0,1-1.253.182,5.759,5.759,0,0,1-1.955-.354,6.052,6.052,0,0,1-1.747-.96l.675-.951a5.887,5.887,0,0,0,1.513.848,4.493,4.493,0,0,0,1.583.293,2.191,2.191,0,0,0,1.332-.38,1.218,1.218,0,0,0,.518-1.037v-.035a.925.925,0,0,0-.181-.571,1.657,1.657,0,0,0-.493-.424,4.063,4.063,0,0,0-.718-.32q-.408-.138-.839-.259-.519-.157-1.047-.337a4.347,4.347,0,0,1-.951-.458,2.323,2.323,0,0,1-.69-.692,1.871,1.871,0,0,1-.268-1.037v-.034a2.41,2.41,0,0,1,.224-1.047,2.354,2.354,0,0,1,.631-.812,2.876,2.876,0,0,1,.969-.519,3.936,3.936,0,0,1,1.218-.182,5.52,5.52,0,0,1,1.677.269,6.268,6.268,0,0,1,1.54.717l-.605,1a6.067,6.067,0,0,0-1.306-.631,4.117,4.117,0,0,0-1.341-.233,1.97,1.97,0,0,0-1.262.372,1.137,1.137,0,0,0-.467.925v.034a.837.837,0,0,0,.19.545,1.64,1.64,0,0,0,.511.406,4.552,4.552,0,0,0,.734.312c.277.092.564.184.864.276.346.1.69.219,1.029.346a4.048,4.048,0,0,1,.926.484,2.383,2.383,0,0,1,.665.709,1.939,1.939,0,0,1,.252,1.021v.035a2.462,2.462,0,0,1-.252,1.133" transform="translate(-9.224 -185.639)" fill="#333"/>
    <path id="Caminho_31683" data-name="Caminho 31683" d="M43.4,541.3a1.4,1.4,0,0,0,.415,1.158,1.7,1.7,0,0,0,1.089.329,2.69,2.69,0,0,0,1.3-.311v1.141a2.967,2.967,0,0,1-.735.285,3.68,3.68,0,0,1-.873.1,3.5,3.5,0,0,1-1-.139,2.043,2.043,0,0,1-.8-.441,2.017,2.017,0,0,1-.528-.786,3.155,3.155,0,0,1-.19-1.158v-5.4H40.819V534.9h1.245v-2.7H43.4v2.7h2.836v1.176H43.4Z" transform="translate(-14.135 -184.293)" fill="#333"/>
    <path id="Caminho_31684" data-name="Caminho 31684" d="M54.485,542.484a3.12,3.12,0,0,0,.709.951,3.014,3.014,0,0,0,.969.588,3.21,3.21,0,0,0,1.124.2,3.421,3.421,0,0,0,1.6-.346,4.727,4.727,0,0,0,1.219-.916l.83.744a5.467,5.467,0,0,1-1.54,1.219,4.537,4.537,0,0,1-2.144.458,4.472,4.472,0,0,1-1.729-.337,4.3,4.3,0,0,1-1.422-.952,4.547,4.547,0,0,1-.969-1.478,4.929,4.929,0,0,1-.359-1.9,5.152,5.152,0,0,1,.321-1.824,4.584,4.584,0,0,1,.89-1.488,4.166,4.166,0,0,1,1.357-.994,4.318,4.318,0,0,1,3.484.009,3.873,3.873,0,0,1,1.315,1.012,4.392,4.392,0,0,1,.812,1.5,6.024,6.024,0,0,1,.277,1.851v.19a1.766,1.766,0,0,1-.017.225H54.139a3.673,3.673,0,0,0,.346,1.289m5.378-2.274a4.612,4.612,0,0,0-.249-1.158,3.063,3.063,0,0,0-.55-.969,2.573,2.573,0,0,0-2.036-.917,2.519,2.519,0,0,0-1.083.233,2.812,2.812,0,0,0-.877.64,3.39,3.39,0,0,0-.619.96,4.114,4.114,0,0,0-.309,1.211Z" transform="translate(-18.274 -185.621)" fill="#333"/>
    <path id="Caminho_31685" data-name="Caminho 31685" d="M78.237,537.131a3.412,3.412,0,0,1,.683-.571,3.343,3.343,0,0,1,.856-.38,3.8,3.8,0,0,1,1.064-.138,3.145,3.145,0,0,1,2.438.96,3.747,3.747,0,0,1,.883,2.637v5.534H82.828V539.95a2.932,2.932,0,0,0-.614-2,2.143,2.143,0,0,0-1.7-.7,2.522,2.522,0,0,0-.952.181,2.223,2.223,0,0,0-.786.536,2.613,2.613,0,0,0-.536.873,3.265,3.265,0,0,0-.2,1.176v5.153H76.724v-5.257a2.877,2.877,0,0,0-.614-1.962,2.122,2.122,0,0,0-1.685-.7,2.317,2.317,0,0,0-.986.207,2.394,2.394,0,0,0-.788.588,2.825,2.825,0,0,0-.528.891,3.232,3.232,0,0,0-.19,1.132v5.1H70.6v-8.94h1.33v1.5a7.63,7.63,0,0,1,.493-.64,3.1,3.1,0,0,1,.615-.545,3.062,3.062,0,0,1,.779-.372,3.289,3.289,0,0,1,1-.138,3.005,3.005,0,0,1,1.8.51,3.3,3.3,0,0,1,1.073,1.271,5.47,5.47,0,0,1,.544-.692" transform="translate(-24.448 -185.621)" fill="#333"/>
    <path id="Caminho_31686" data-name="Caminho 31686" d="M98.515,537.505a8.1,8.1,0,0,0-1.271.475l-.4-1.089a8.934,8.934,0,0,1,1.5-.544,6.924,6.924,0,0,1,1.747-.2,4.018,4.018,0,0,1,2.819.907,3.481,3.481,0,0,1,.986,2.689v5.464h-1.281v-1.349a4.383,4.383,0,0,1-1.253,1.072,3.833,3.833,0,0,1-1.981.467,4.363,4.363,0,0,1-1.219-.173A3.313,3.313,0,0,1,97.1,544.7a2.713,2.713,0,0,1-.761-.873,2.509,2.509,0,0,1-.284-1.228,2.716,2.716,0,0,1,.277-1.254,2.458,2.458,0,0,1,.786-.908,3.761,3.761,0,0,1,1.21-.553,5.877,5.877,0,0,1,1.548-.19,9.432,9.432,0,0,1,1.5.1,10.805,10.805,0,0,1,1.245.277v-.312a2.3,2.3,0,0,0-.7-1.824,2.881,2.881,0,0,0-1.962-.614,5.35,5.35,0,0,0-1.444.181m-.426,3.675a1.612,1.612,0,0,0-.671,1.366,1.54,1.54,0,0,0,.181.761,1.751,1.751,0,0,0,.49.562,2.246,2.246,0,0,0,.715.354,2.959,2.959,0,0,0,.854.122,3.635,3.635,0,0,0,1.164-.182,3.088,3.088,0,0,0,.947-.5,2.377,2.377,0,0,0,.638-.761,2.064,2.064,0,0,0,.233-.977v-.865q-.5-.137-1.147-.259a8.017,8.017,0,0,0-1.473-.122,3.184,3.184,0,0,0-1.93.5" transform="translate(-33.261 -185.658)" fill="#333"/>
    <rect id="Retângulo_7452" data-name="Retângulo 7452" width="1.366" height="12.105" transform="translate(80.74 347.447)" fill="#333"/>
    <path id="Caminho_31687" data-name="Caminho 31687" d="M133.33,545.172H132v-8.94h1.33v1.557a4.225,4.225,0,0,1,1.176-1.237,3.215,3.215,0,0,1,1.886-.51,3.773,3.773,0,0,1,1.444.26,2.986,2.986,0,0,1,1.071.735,3.225,3.225,0,0,1,.675,1.132,4.335,4.335,0,0,1,.233,1.453v5.551h-1.332V539.95a2.876,2.876,0,0,0-.64-1.972,2.312,2.312,0,0,0-1.832-.726,2.824,2.824,0,0,0-1.064.2,2.493,2.493,0,0,0-.857.571,2.589,2.589,0,0,0-.562.89,3.162,3.162,0,0,0-.2,1.141Z" transform="translate(-45.709 -185.621)" fill="#333"/>
    <path id="Caminho_31688" data-name="Caminho 31688" d="M151,541.3a1.4,1.4,0,0,0,.415,1.158,1.7,1.7,0,0,0,1.089.329,2.69,2.69,0,0,0,1.3-.311v1.141a2.958,2.958,0,0,1-.734.285,3.7,3.7,0,0,1-.873.1,3.52,3.52,0,0,1-1-.139,2.043,2.043,0,0,1-.8-.441,2.017,2.017,0,0,1-.528-.786,3.182,3.182,0,0,1-.19-1.158v-5.4h-1.245V534.9h1.245v-2.7H151v2.7h2.836v1.176H151Z" transform="translate(-51.397 -184.293)" fill="#333"/>
    <path id="Caminho_31689" data-name="Caminho 31689" d="M162.093,542.484a3.145,3.145,0,0,0,.71.951,2.994,2.994,0,0,0,.968.588,3.225,3.225,0,0,0,1.125.2,3.416,3.416,0,0,0,1.6-.346,4.705,4.705,0,0,0,1.219-.916l.83.744A5.48,5.48,0,0,1,167,544.921a4.543,4.543,0,0,1-2.145.458,4.479,4.479,0,0,1-1.729-.337,4.315,4.315,0,0,1-1.422-.952,4.523,4.523,0,0,1-.968-1.478,4.9,4.9,0,0,1-.359-1.9,5.152,5.152,0,0,1,.32-1.824,4.587,4.587,0,0,1,.891-1.488,4.166,4.166,0,0,1,1.357-.994,4.318,4.318,0,0,1,3.484.009,3.874,3.874,0,0,1,1.314,1.012,4.416,4.416,0,0,1,.813,1.5,6.064,6.064,0,0,1,.277,1.851v.19a1.661,1.661,0,0,1-.018.225h-7.073a3.7,3.7,0,0,0,.345,1.289m5.38-2.274a4.585,4.585,0,0,0-.251-1.158,3.06,3.06,0,0,0-.549-.969,2.578,2.578,0,0,0-2.038-.917,2.519,2.519,0,0,0-1.083.233,2.822,2.822,0,0,0-.876.64,3.361,3.361,0,0,0-.619.96,4.034,4.034,0,0,0-.309,1.211Z" transform="translate(-55.537 -185.621)" fill="#333"/>
    <path id="Caminho_31690" data-name="Caminho 31690" d="M186.126,545.518a3.613,3.613,0,0,1-.917,1.357,3.926,3.926,0,0,1-1.435.822,6,6,0,0,1-1.877.277,7.284,7.284,0,0,1-2.144-.311,6.9,6.9,0,0,1-1.921-.933l.605-1.037a6.5,6.5,0,0,0,1.625.847,5.523,5.523,0,0,0,1.817.293,3.376,3.376,0,0,0,2.368-.8,3.053,3.053,0,0,0,.883-2.378V542.6a5.664,5.664,0,0,1-1.435,1.332,3.716,3.716,0,0,1-2.076.553,4.372,4.372,0,0,1-1.564-.284,4.063,4.063,0,0,1-2.283-2.153,4.219,4.219,0,0,1-.355-1.764,4.275,4.275,0,0,1,.355-1.772,4.075,4.075,0,0,1,.943-1.332,4.19,4.19,0,0,1,1.348-.839,4.4,4.4,0,0,1,2.707-.147,4.228,4.228,0,0,1,.951.389,4.035,4.035,0,0,1,.77.571,5.965,5.965,0,0,1,.622.692v-1.608h1.332v7.384a5.181,5.181,0,0,1-.319,1.9m-1.237-6.511a3.024,3.024,0,0,0-.734-.96,3.355,3.355,0,0,0-1.047-.614,3.535,3.535,0,0,0-1.227-.216,3.436,3.436,0,0,0-1.2.207,2.877,2.877,0,0,0-.986.605,2.821,2.821,0,0,0-.665.96,3.126,3.126,0,0,0-.243,1.254,3.044,3.044,0,0,0,.252,1.254,3.013,3.013,0,0,0,.674.968,2.929,2.929,0,0,0,.986.622,3.258,3.258,0,0,0,1.185.216,3.52,3.52,0,0,0,1.227-.216,3.354,3.354,0,0,0,1.047-.614,3.018,3.018,0,0,0,.734-.96,2.975,2.975,0,0,0,0-2.508" transform="translate(-61.436 -185.621)" fill="#333"/>
    <path id="Caminho_31691" data-name="Caminho 31691" d="M198.43,545.19H197.1v-8.94h1.33v2.334a4.855,4.855,0,0,1,.605-1.02,4.082,4.082,0,0,1,.831-.8,3.524,3.524,0,0,1,1.02-.51,3.626,3.626,0,0,1,1.192-.156v1.435h-.1a3.68,3.68,0,0,0-1.375.26,3.127,3.127,0,0,0-1.132.778,3.682,3.682,0,0,0-.761,1.289,5.246,5.246,0,0,0-.277,1.773Z" transform="translate(-68.252 -185.639)" fill="#333"/>
    <path id="Caminho_31692" data-name="Caminho 31692" d="M209.9,537.505a8.131,8.131,0,0,0-1.27.475l-.4-1.089a8.9,8.9,0,0,1,1.5-.544,6.924,6.924,0,0,1,1.747-.2,4.013,4.013,0,0,1,2.818.907,3.476,3.476,0,0,1,.986,2.689v5.464h-1.279v-1.349a4.39,4.39,0,0,1-1.254,1.072,3.833,3.833,0,0,1-1.981.467,4.37,4.37,0,0,1-1.219-.173,3.32,3.32,0,0,1-1.071-.527,2.7,2.7,0,0,1-.761-.873,2.509,2.509,0,0,1-.286-1.228,2.716,2.716,0,0,1,.277-1.254,2.47,2.47,0,0,1,.786-.908,3.774,3.774,0,0,1,1.21-.553,5.88,5.88,0,0,1,1.549-.19,9.426,9.426,0,0,1,1.5.1,10.8,10.8,0,0,1,1.245.277v-.312a2.3,2.3,0,0,0-.7-1.824,2.879,2.879,0,0,0-1.962-.614,5.364,5.364,0,0,0-1.444.181m-.424,3.675a1.612,1.612,0,0,0-.673,1.366,1.547,1.547,0,0,0,.181.761,1.749,1.749,0,0,0,.492.562,2.223,2.223,0,0,0,.715.354,2.943,2.943,0,0,0,.852.122,3.626,3.626,0,0,0,1.164-.182,3.1,3.1,0,0,0,.949-.5,2.383,2.383,0,0,0,.637-.761,2.057,2.057,0,0,0,.233-.977v-.865q-.5-.137-1.147-.259a8.027,8.027,0,0,0-1.473-.122,3.181,3.181,0,0,0-1.93.5" transform="translate(-71.833 -185.658)" fill="#333"/>
    <path id="Caminho_31693" data-name="Caminho 31693" d="M232.014,543.322v-1.8a6.8,6.8,0,0,1-.614.761,4.2,4.2,0,0,1-.752.639,3.472,3.472,0,0,1-.924.433,3.866,3.866,0,0,1-1.132.156,4.11,4.11,0,0,1-1.574-.312,4.192,4.192,0,0,1-1.366-.907,4.419,4.419,0,0,1-.968-1.462,5.527,5.527,0,0,1,0-3.943,4.422,4.422,0,0,1,.968-1.461,4.3,4.3,0,0,1,1.366-.917,4.022,4.022,0,0,1,1.574-.32,3.962,3.962,0,0,1,1.14.155,3.843,3.843,0,0,1,.935.416,4.011,4.011,0,0,1,.752.605,5.32,5.32,0,0,1,.6.726v-5.4h1.332v12.624Zm-.216-5.89a3.287,3.287,0,0,0-.726-1.084,3.4,3.4,0,0,0-1.038-.7,3,3,0,0,0-1.2-.249,3.221,3.221,0,0,0-1.227.232,2.868,2.868,0,0,0-.995.671,3.184,3.184,0,0,0-.674,1.084,3.981,3.981,0,0,0-.252,1.453,3.87,3.87,0,0,0,.252,1.429,3.342,3.342,0,0,0,.683,1.092,2.954,2.954,0,0,0,1,.7,3.089,3.089,0,0,0,1.211.241,3,3,0,0,0,1.2-.25,3.4,3.4,0,0,0,1.038-.7,3.261,3.261,0,0,0,.726-1.093,3.67,3.67,0,0,0,.268-1.42,3.6,3.6,0,0,0-.268-1.411" transform="translate(-77.677 -183.771)" fill="#333"/>
    <path id="Caminho_31694" data-name="Caminho 31694" d="M252.119,542.5a4.744,4.744,0,0,1-.978,1.5,4.572,4.572,0,0,1-1.487,1.012,4.7,4.7,0,0,1-1.868.371,4.561,4.561,0,0,1-1.85-.371,4.681,4.681,0,0,1-1.471-1,4.514,4.514,0,0,1-.968-1.478,4.714,4.714,0,0,1-.346-1.8,4.776,4.776,0,0,1,.346-1.807,4.541,4.541,0,0,1,2.446-2.508,4.663,4.663,0,0,1,1.877-.371,4.616,4.616,0,0,1,1.859.371,4.676,4.676,0,0,1,1.479,1,4.5,4.5,0,0,1,.967,1.479,4.818,4.818,0,0,1-.007,3.606m-1.262-3.144a3.421,3.421,0,0,0-.7-1.112,3.352,3.352,0,0,0-1.055-.751,3.131,3.131,0,0,0-1.313-.275,3.243,3.243,0,0,0-1.332.267,2.971,2.971,0,0,0-1.03.741,3.561,3.561,0,0,0-.665,1.1,3.872,3.872,0,0,0,.007,2.717,3.4,3.4,0,0,0,.692,1.1,3.314,3.314,0,0,0,1.047.741,3.122,3.122,0,0,0,1.313.276,3.25,3.25,0,0,0,1.332-.267,3.092,3.092,0,0,0,1.036-.733,3.372,3.372,0,0,0,.676-1.1,3.75,3.75,0,0,0,.241-1.354,3.7,3.7,0,0,0-.25-1.363" transform="translate(-84.199 -185.621)" fill="#333"/>
    <path id="Caminho_31695" data-name="Caminho 31695" d="M278.57,543.322v-1.8a6.8,6.8,0,0,1-.614.761,4.2,4.2,0,0,1-.752.639,3.472,3.472,0,0,1-.924.433,3.866,3.866,0,0,1-1.132.156,4.109,4.109,0,0,1-1.574-.312,4.192,4.192,0,0,1-1.366-.907,4.419,4.419,0,0,1-.968-1.462,5.527,5.527,0,0,1,0-3.943,4.422,4.422,0,0,1,.968-1.461,4.3,4.3,0,0,1,1.366-.917,4.022,4.022,0,0,1,1.574-.32,3.961,3.961,0,0,1,1.14.155,3.844,3.844,0,0,1,.935.416,4.011,4.011,0,0,1,.752.605,5.319,5.319,0,0,1,.6.726v-5.4H279.9v12.624Zm-.216-5.89a3.286,3.286,0,0,0-.726-1.084,3.4,3.4,0,0,0-1.038-.7,3,3,0,0,0-1.2-.249,3.221,3.221,0,0,0-1.227.232,2.868,2.868,0,0,0-.995.671,3.184,3.184,0,0,0-.674,1.084,3.98,3.98,0,0,0-.252,1.453,3.869,3.869,0,0,0,.252,1.429,3.342,3.342,0,0,0,.683,1.092,2.954,2.954,0,0,0,1,.7,3.089,3.089,0,0,0,1.211.241,3,3,0,0,0,1.2-.25,3.4,3.4,0,0,0,1.038-.7,3.26,3.26,0,0,0,.726-1.093,3.67,3.67,0,0,0,.268-1.42,3.6,3.6,0,0,0-.268-1.411" transform="translate(-93.799 -183.771)" fill="#333"/>
    <path id="Caminho_31696" data-name="Caminho 31696" d="M291.421,542.484a3.12,3.12,0,0,0,.709.951,3.014,3.014,0,0,0,.969.588,3.21,3.21,0,0,0,1.124.2,3.421,3.421,0,0,0,1.6-.346,4.727,4.727,0,0,0,1.219-.916l.83.744a5.467,5.467,0,0,1-1.54,1.219,4.538,4.538,0,0,1-2.144.458,4.473,4.473,0,0,1-1.729-.337,4.3,4.3,0,0,1-1.422-.952,4.547,4.547,0,0,1-.969-1.478,4.928,4.928,0,0,1-.359-1.9,5.153,5.153,0,0,1,.321-1.824,4.584,4.584,0,0,1,.89-1.488,4.166,4.166,0,0,1,1.357-.994,4.318,4.318,0,0,1,3.484.009,3.873,3.873,0,0,1,1.315,1.012,4.392,4.392,0,0,1,.812,1.5,6.024,6.024,0,0,1,.277,1.851v.19a1.759,1.759,0,0,1-.017.225h-7.073a3.672,3.672,0,0,0,.346,1.289m5.378-2.274a4.612,4.612,0,0,0-.249-1.158,3.063,3.063,0,0,0-.55-.969,2.573,2.573,0,0,0-2.036-.917,2.519,2.519,0,0,0-1.083.233,2.813,2.813,0,0,0-.877.64,3.391,3.391,0,0,0-.619.96,4.113,4.113,0,0,0-.309,1.211Z" transform="translate(-100.321 -185.621)" fill="#333"/>
    <path id="Caminho_31697" data-name="Caminho 31697" d="M325.252,543.151a6.836,6.836,0,0,1-2.776.543,6.48,6.48,0,0,1-2.568-.484,5.686,5.686,0,0,1-3.165-3.32,6.969,6.969,0,0,1-.424-2.439,6.548,6.548,0,0,1,.442-2.386A6.273,6.273,0,0,1,318,533.059a5.857,5.857,0,0,1,4.392-1.885,8.589,8.589,0,0,1,1.392.1,6.022,6.022,0,0,1,1.176.311,5.6,5.6,0,0,1,1.021.511,8.449,8.449,0,0,1,.924.683l-.882,1.037a6.1,6.1,0,0,0-.726-.562,4.877,4.877,0,0,0-.822-.433,5.236,5.236,0,0,0-.968-.285,6.068,6.068,0,0,0-1.167-.1,4.292,4.292,0,0,0-1.851.4,4.493,4.493,0,0,0-1.452,1.074,5,5,0,0,0-.951,1.585,5.385,5.385,0,0,0-.346,1.932,5.873,5.873,0,0,0,.337,2.018,4.707,4.707,0,0,0,.96,1.6,4.371,4.371,0,0,0,1.5,1.056,4.959,4.959,0,0,0,1.988.381,5.351,5.351,0,0,0,1.955-.356,5.725,5.725,0,0,0,1.539-.86v-3.021h-3.682v-1.211h5v4.813a7.822,7.822,0,0,1-2.084,1.3" transform="translate(-109.536 -183.935)" fill="#333"/>
    <path id="Caminho_31698" data-name="Caminho 31698" d="M339.723,542.484a3.119,3.119,0,0,0,.709.951,3.014,3.014,0,0,0,.969.588,3.21,3.21,0,0,0,1.124.2,3.422,3.422,0,0,0,1.6-.346,4.728,4.728,0,0,0,1.219-.916l.83.744a5.466,5.466,0,0,1-1.54,1.219,4.537,4.537,0,0,1-2.144.458,4.472,4.472,0,0,1-1.729-.337,4.3,4.3,0,0,1-1.422-.952,4.546,4.546,0,0,1-.969-1.478,4.928,4.928,0,0,1-.359-1.9,5.151,5.151,0,0,1,.321-1.824,4.583,4.583,0,0,1,.89-1.488,4.166,4.166,0,0,1,1.357-.994,4.318,4.318,0,0,1,3.484.009,3.873,3.873,0,0,1,1.315,1.012,4.391,4.391,0,0,1,.812,1.5,6.023,6.023,0,0,1,.277,1.851v.19a1.765,1.765,0,0,1-.017.225h-7.073a3.673,3.673,0,0,0,.346,1.289m5.378-2.274a4.612,4.612,0,0,0-.249-1.158,3.063,3.063,0,0,0-.55-.969,2.573,2.573,0,0,0-2.036-.917,2.519,2.519,0,0,0-1.083.233,2.812,2.812,0,0,0-.877.64,3.389,3.389,0,0,0-.619.96,4.112,4.112,0,0,0-.309,1.211Z" transform="translate(-117.047 -185.621)" fill="#333"/>
    <path id="Caminho_31699" data-name="Caminho 31699" d="M361.335,543.816a2.588,2.588,0,0,1-.674.838,2.956,2.956,0,0,1-1,.528,4.168,4.168,0,0,1-1.253.182,5.758,5.758,0,0,1-1.955-.354,6.052,6.052,0,0,1-1.747-.96l.675-.951a5.887,5.887,0,0,0,1.513.848,4.493,4.493,0,0,0,1.583.293,2.191,2.191,0,0,0,1.332-.38,1.218,1.218,0,0,0,.518-1.037v-.035a.925.925,0,0,0-.181-.571,1.657,1.657,0,0,0-.493-.424,4.063,4.063,0,0,0-.718-.32q-.408-.138-.839-.259-.519-.157-1.047-.337a4.347,4.347,0,0,1-.951-.458,2.323,2.323,0,0,1-.69-.692,1.871,1.871,0,0,1-.268-1.037v-.034a2.409,2.409,0,0,1,.224-1.047,2.354,2.354,0,0,1,.631-.812,2.876,2.876,0,0,1,.969-.519,3.936,3.936,0,0,1,1.218-.182,5.52,5.52,0,0,1,1.677.269,6.268,6.268,0,0,1,1.54.717l-.605,1a6.067,6.067,0,0,0-1.306-.631,4.117,4.117,0,0,0-1.341-.233,1.97,1.97,0,0,0-1.262.372,1.137,1.137,0,0,0-.467.925v.034a.837.837,0,0,0,.19.545,1.64,1.64,0,0,0,.511.406,4.551,4.551,0,0,0,.734.312c.277.092.564.184.864.276.346.1.69.219,1.029.346a4.048,4.048,0,0,1,.926.484,2.383,2.383,0,0,1,.665.709,1.939,1.939,0,0,1,.252,1.021v.035a2.462,2.462,0,0,1-.252,1.133" transform="translate(-122.827 -185.639)" fill="#333"/>
    <path id="Caminho_31700" data-name="Caminho 31700" d="M371.459,541.3a1.4,1.4,0,0,0,.415,1.158,1.7,1.7,0,0,0,1.089.329,2.69,2.69,0,0,0,1.3-.311v1.141a2.966,2.966,0,0,1-.735.285,3.68,3.68,0,0,1-.873.1,3.5,3.5,0,0,1-1-.139,2.043,2.043,0,0,1-.8-.441,2.017,2.017,0,0,1-.528-.786,3.154,3.154,0,0,1-.19-1.158v-5.4h-1.245V534.9h1.245v-2.7h1.332v2.7H374.3v1.176h-2.836Z" transform="translate(-127.737 -184.293)" fill="#333"/>
    <path id="Caminho_31701" data-name="Caminho 31701" d="M383.516,535.774a8.1,8.1,0,0,0-1.272.475l-.4-1.089a8.94,8.94,0,0,1,1.5-.544,6.92,6.92,0,0,1,1.747-.2,4.017,4.017,0,0,1,2.819.907,3.481,3.481,0,0,1,.986,2.689v5.464h-1.281v-1.349a4.372,4.372,0,0,1-1.253,1.072,3.831,3.831,0,0,1-1.98.467,4.369,4.369,0,0,1-1.22-.173,3.3,3.3,0,0,1-1.072-.527,2.7,2.7,0,0,1-.761-.873,2.509,2.509,0,0,1-.285-1.228,2.724,2.724,0,0,1,.277-1.254,2.464,2.464,0,0,1,.786-.908,3.769,3.769,0,0,1,1.211-.553,5.87,5.87,0,0,1,1.547-.19,9.44,9.44,0,0,1,1.5.1,10.806,10.806,0,0,1,1.245.277v-.312a2.3,2.3,0,0,0-.7-1.824,2.882,2.882,0,0,0-1.962-.614,5.347,5.347,0,0,0-1.444.181m-.427,3.675a1.614,1.614,0,0,0-.671,1.366,1.546,1.546,0,0,0,.181.761,1.75,1.75,0,0,0,.49.562,2.252,2.252,0,0,0,.715.354,2.961,2.961,0,0,0,.854.122,3.631,3.631,0,0,0,1.163-.182,3.079,3.079,0,0,0,.947-.5,2.379,2.379,0,0,0,.639-.761,2.072,2.072,0,0,0,.232-.977v-.865q-.5-.137-1.147-.259a8.016,8.016,0,0,0-1.473-.122,3.184,3.184,0,0,0-1.93.5m4.395-6.675a1.3,1.3,0,0,1-1,.415,1.929,1.929,0,0,1-.605-.1q-.312-.1-.623-.227c-.208-.084-.4-.163-.588-.236a1.375,1.375,0,0,0-.5-.11.7.7,0,0,0-.528.186,2.13,2.13,0,0,0-.373.644l-.812-.225a3.371,3.371,0,0,1,.639-1.4,1.3,1.3,0,0,1,1-.415,1.835,1.835,0,0,1,.605.11c.207.073.415.151.622.236s.4.16.589.227a1.471,1.471,0,0,0,.5.1.707.707,0,0,0,.529-.186,2.154,2.154,0,0,0,.371-.644l.813.225a3.373,3.373,0,0,1-.64,1.4" transform="translate(-131.951 -183.926)" fill="#333"/>
    <path id="Caminho_31702" data-name="Caminho 31702" d="M406.841,542.5a4.708,4.708,0,0,1-.977,1.5,4.553,4.553,0,0,1-1.487,1.012,4.689,4.689,0,0,1-1.868.371,4.565,4.565,0,0,1-1.85-.371,4.675,4.675,0,0,1-1.47-1,4.518,4.518,0,0,1-.969-1.478,4.738,4.738,0,0,1-.345-1.8,4.8,4.8,0,0,1,.345-1.807,4.549,4.549,0,0,1,2.448-2.508,4.729,4.729,0,0,1,5.213,1,4.527,4.527,0,0,1,.969,1.479,4.81,4.81,0,0,1-.009,3.606m-1.263-3.144a3.4,3.4,0,0,0-.7-1.112,3.352,3.352,0,0,0-1.055-.751,3.133,3.133,0,0,0-1.315-.275,3.233,3.233,0,0,0-1.33.267,2.953,2.953,0,0,0-1.03.741,3.564,3.564,0,0,0-.666,1.1,3.753,3.753,0,0,0-.241,1.354,3.7,3.7,0,0,0,.25,1.363,3.378,3.378,0,0,0,.692,1.1,3.315,3.315,0,0,0,1.046.741,3.122,3.122,0,0,0,1.313.276,3.245,3.245,0,0,0,1.332-.267,3.11,3.11,0,0,0,1.037-.733,3.348,3.348,0,0,0,.675-1.1,3.857,3.857,0,0,0-.009-2.717" transform="translate(-137.776 -185.621)" fill="#333"/>
    <path id="Caminho_31703" data-name="Caminho 31703" d="M12.313,573.971H10.843l-1.417-3.2H2.837l-1.435,3.2H0L5.517,561.78H6.8ZM6.14,563.388l-2.767,6.174H8.889Z" transform="translate(0 -194.534)" fill="#333"/>
    <path id="Caminho_31704" data-name="Caminho 31704" d="M29.7,573.743v-1.8a6.8,6.8,0,0,1-.614.761,4.2,4.2,0,0,1-.752.639,3.469,3.469,0,0,1-.924.433,3.864,3.864,0,0,1-1.132.156,4.11,4.11,0,0,1-1.574-.312,4.193,4.193,0,0,1-1.366-.907,4.42,4.42,0,0,1-.968-1.462,5.528,5.528,0,0,1,0-3.943,4.422,4.422,0,0,1,.968-1.461,4.3,4.3,0,0,1,1.366-.916,4.021,4.021,0,0,1,1.574-.32,3.957,3.957,0,0,1,1.14.155,3.841,3.841,0,0,1,.935.416,4.01,4.01,0,0,1,.752.605,5.319,5.319,0,0,1,.6.726v-5.4h1.332v12.624Zm-.216-5.89a3.286,3.286,0,0,0-.726-1.084,3.4,3.4,0,0,0-1.038-.7,3,3,0,0,0-1.2-.249,3.222,3.222,0,0,0-1.227.232,2.869,2.869,0,0,0-.995.671,3.185,3.185,0,0,0-.674,1.085,3.981,3.981,0,0,0-.252,1.453,3.869,3.869,0,0,0,.252,1.429,3.341,3.341,0,0,0,.683,1.092,2.952,2.952,0,0,0,1,.7,3.09,3.09,0,0,0,1.211.241,3,3,0,0,0,1.2-.25,3.4,3.4,0,0,0,1.038-.7,3.259,3.259,0,0,0,.726-1.093,3.67,3.67,0,0,0,.268-1.42,3.605,3.605,0,0,0-.268-1.411" transform="translate(-7.622 -194.305)" fill="#333"/>
    <path id="Caminho_31705" data-name="Caminho 31705" d="M49.325,567.552a3.414,3.414,0,0,1,.683-.571,3.343,3.343,0,0,1,.856-.38,3.8,3.8,0,0,1,1.064-.138,3.145,3.145,0,0,1,2.438.96,3.747,3.747,0,0,1,.883,2.637v5.534H53.916v-5.223a2.932,2.932,0,0,0-.614-2,2.143,2.143,0,0,0-1.7-.7,2.521,2.521,0,0,0-.952.181,2.223,2.223,0,0,0-.786.536,2.613,2.613,0,0,0-.536.873,3.264,3.264,0,0,0-.2,1.176v5.153H47.812v-5.257a2.877,2.877,0,0,0-.614-1.963,2.123,2.123,0,0,0-1.685-.7,2.315,2.315,0,0,0-.986.207,2.394,2.394,0,0,0-.788.588,2.825,2.825,0,0,0-.528.891,3.232,3.232,0,0,0-.19,1.132v5.1h-1.33v-8.94h1.33v1.5a7.62,7.62,0,0,1,.493-.64,3.1,3.1,0,0,1,.614-.545,3.058,3.058,0,0,1,.779-.372,3.289,3.289,0,0,1,1-.138,3.006,3.006,0,0,1,1.8.51,3.3,3.3,0,0,1,1.073,1.271,5.464,5.464,0,0,1,.544-.692" transform="translate(-14.437 -196.155)" fill="#333"/>
    <path id="Caminho_31706" data-name="Caminho 31706" d="M68.223,561.516h1.521v1.47H68.223Zm.086,3.424H69.64v8.94H68.309Z" transform="translate(-23.624 -194.442)" fill="#333"/>
    <path id="Caminho_31707" data-name="Caminho 31707" d="M77.781,575.594H76.449v-8.94h1.332v1.556a4.224,4.224,0,0,1,1.176-1.237,3.208,3.208,0,0,1,1.885-.51,3.773,3.773,0,0,1,1.444.26,2.981,2.981,0,0,1,1.072.735,3.253,3.253,0,0,1,.675,1.132,4.319,4.319,0,0,1,.233,1.453v5.551H82.934v-5.223a2.876,2.876,0,0,0-.64-1.972,2.315,2.315,0,0,0-1.833-.726,2.831,2.831,0,0,0-1.064.2,2.488,2.488,0,0,0-.856.571,2.551,2.551,0,0,0-.562.89,3.161,3.161,0,0,0-.2,1.141Z" transform="translate(-26.473 -196.155)" fill="#333"/>
    <path id="Caminho_31708" data-name="Caminho 31708" d="M94.119,561.516h1.522v1.47H94.119Zm.087,3.424h1.332v8.94H94.206Z" transform="translate(-32.592 -194.442)" fill="#333"/>
    <path id="Caminho_31709" data-name="Caminho 31709" d="M107.841,574.237a2.6,2.6,0,0,1-.675.838,2.98,2.98,0,0,1-1,.528,4.181,4.181,0,0,1-1.254.182,5.744,5.744,0,0,1-1.954-.354,6.05,6.05,0,0,1-1.747-.96l.675-.951a5.867,5.867,0,0,0,1.513.848,4.493,4.493,0,0,0,1.582.294,2.189,2.189,0,0,0,1.332-.38,1.215,1.215,0,0,0,.518-1.037v-.035a.925.925,0,0,0-.181-.571,1.643,1.643,0,0,0-.493-.424,4,4,0,0,0-.718-.32q-.406-.138-.839-.259-.519-.157-1.046-.337a4.292,4.292,0,0,1-.951-.458,2.328,2.328,0,0,1-.692-.692,1.877,1.877,0,0,1-.268-1.037v-.034a2.428,2.428,0,0,1,.224-1.047,2.358,2.358,0,0,1,.632-.813,2.883,2.883,0,0,1,.968-.519,3.945,3.945,0,0,1,1.219-.182,5.531,5.531,0,0,1,1.677.269,6.261,6.261,0,0,1,1.539.717l-.605,1a6.093,6.093,0,0,0-1.3-.631,4.117,4.117,0,0,0-1.341-.233,1.971,1.971,0,0,0-1.262.372,1.136,1.136,0,0,0-.467.925v.034a.837.837,0,0,0,.191.545,1.667,1.667,0,0,0,.51.406,4.62,4.62,0,0,0,.735.312q.414.138.864.276.519.156,1.029.346a4.009,4.009,0,0,1,.924.484,2.381,2.381,0,0,1,.667.709,1.945,1.945,0,0,1,.25,1.02v.035a2.471,2.471,0,0,1-.25,1.133" transform="translate(-35.046 -196.173)" fill="#333"/>
    <path id="Caminho_31710" data-name="Caminho 31710" d="M117.963,571.723a1.4,1.4,0,0,0,.415,1.158,1.7,1.7,0,0,0,1.089.329,2.688,2.688,0,0,0,1.3-.311v1.141a2.96,2.96,0,0,1-.734.285,3.7,3.7,0,0,1-.873.1,3.522,3.522,0,0,1-1-.139,2.042,2.042,0,0,1-.8-.441,2.017,2.017,0,0,1-.528-.786,3.183,3.183,0,0,1-.19-1.158v-5.4h-1.245v-1.176h1.245v-2.7h1.332v2.7H120.8V566.5h-2.836Z" transform="translate(-39.956 -194.827)" fill="#333"/>
    <path id="Caminho_31711" data-name="Caminho 31711" d="M129.918,575.611h-1.33v-8.94h1.33v2.334a4.851,4.851,0,0,1,.605-1.02,4.08,4.08,0,0,1,.831-.8,3.522,3.522,0,0,1,1.02-.51,3.627,3.627,0,0,1,1.192-.156v1.435h-.1a3.68,3.68,0,0,0-1.375.26,3.127,3.127,0,0,0-1.132.778,3.681,3.681,0,0,0-.761,1.289,5.247,5.247,0,0,0-.277,1.773Z" transform="translate(-44.528 -196.173)" fill="#333"/>
    <path id="Caminho_31712" data-name="Caminho 31712" d="M141.394,567.926a8.11,8.11,0,0,0-1.271.475l-.4-1.089a8.938,8.938,0,0,1,1.5-.545,6.927,6.927,0,0,1,1.747-.2,4.019,4.019,0,0,1,2.819.907,3.481,3.481,0,0,1,.986,2.689v5.464H145.5v-1.349a4.382,4.382,0,0,1-1.253,1.072,3.833,3.833,0,0,1-1.981.467,4.363,4.363,0,0,1-1.219-.173,3.314,3.314,0,0,1-1.073-.527,2.713,2.713,0,0,1-.761-.873,2.509,2.509,0,0,1-.284-1.228,2.716,2.716,0,0,1,.277-1.254,2.458,2.458,0,0,1,.786-.908,3.759,3.759,0,0,1,1.21-.553,5.875,5.875,0,0,1,1.548-.19,9.432,9.432,0,0,1,1.5.1,10.818,10.818,0,0,1,1.245.276v-.312a2.3,2.3,0,0,0-.7-1.824,2.881,2.881,0,0,0-1.962-.614,5.35,5.35,0,0,0-1.444.181m-.426,3.675a1.612,1.612,0,0,0-.671,1.366,1.54,1.54,0,0,0,.181.761,1.752,1.752,0,0,0,.49.562,2.246,2.246,0,0,0,.715.354,2.957,2.957,0,0,0,.854.122,3.633,3.633,0,0,0,1.164-.182,3.085,3.085,0,0,0,.947-.5,2.376,2.376,0,0,0,.638-.761,2.064,2.064,0,0,0,.233-.977v-.865q-.5-.137-1.147-.259a8.017,8.017,0,0,0-1.473-.122,3.184,3.184,0,0,0-1.93.5" transform="translate(-48.109 -196.192)" fill="#333"/>
    <path id="Caminho_31713" data-name="Caminho 31713" d="M157.854,571.723a1.4,1.4,0,0,0,.415,1.158,1.7,1.7,0,0,0,1.089.329,2.688,2.688,0,0,0,1.3-.311v1.141a2.96,2.96,0,0,1-.734.285,3.7,3.7,0,0,1-.873.1,3.522,3.522,0,0,1-1-.139,2.042,2.042,0,0,1-.8-.441,2.017,2.017,0,0,1-.528-.786,3.183,3.183,0,0,1-.19-1.158v-5.4h-1.245v-1.176h1.245v-2.7h1.332v2.7h2.836V566.5h-2.836Z" transform="translate(-53.77 -194.827)" fill="#333"/>
    <path id="Caminho_31714" data-name="Caminho 31714" d="M168.531,561.516h1.521v1.47h-1.521Zm.086,3.424h1.332v8.94h-1.332Z" transform="translate(-58.359 -194.442)" fill="#333"/>
    <path id="Caminho_31715" data-name="Caminho 31715" d="M182.913,566.754h1.435l-3.89,9.009h-1.176l-3.873-9.009h1.47l3.009,7.418Z" transform="translate(-60.741 -196.256)" fill="#333"/>
    <path id="Caminho_31716" data-name="Caminho 31716" d="M194.378,567.926a8.144,8.144,0,0,0-1.27.475l-.4-1.089a8.912,8.912,0,0,1,1.5-.545,6.927,6.927,0,0,1,1.747-.2,4.013,4.013,0,0,1,2.818.907,3.477,3.477,0,0,1,.986,2.689v5.464h-1.279v-1.349a4.389,4.389,0,0,1-1.254,1.072,3.833,3.833,0,0,1-1.981.467,4.369,4.369,0,0,1-1.219-.173,3.321,3.321,0,0,1-1.071-.527,2.7,2.7,0,0,1-.761-.873,2.509,2.509,0,0,1-.286-1.228,2.716,2.716,0,0,1,.277-1.254,2.47,2.47,0,0,1,.786-.908,3.772,3.772,0,0,1,1.21-.553,5.878,5.878,0,0,1,1.549-.19,9.432,9.432,0,0,1,1.5.1,10.817,10.817,0,0,1,1.245.276v-.312a2.3,2.3,0,0,0-.7-1.824,2.879,2.879,0,0,0-1.962-.614,5.364,5.364,0,0,0-1.444.181m-.425,3.675a1.613,1.613,0,0,0-.673,1.366,1.547,1.547,0,0,0,.181.761,1.755,1.755,0,0,0,.492.562,2.233,2.233,0,0,0,.715.354,2.942,2.942,0,0,0,.852.122,3.627,3.627,0,0,0,1.164-.182,3.092,3.092,0,0,0,.949-.5,2.383,2.383,0,0,0,.637-.761,2.057,2.057,0,0,0,.233-.977v-.865q-.5-.137-1.147-.259a8.027,8.027,0,0,0-1.473-.122,3.184,3.184,0,0,0-1.93.5" transform="translate(-66.456 -196.192)" fill="#333"/>
    <path id="Caminho_31717" data-name="Caminho 31717" d="M219.708,572.9a3.12,3.12,0,0,0,.709.951,3.012,3.012,0,0,0,.969.588,3.21,3.21,0,0,0,1.124.2,3.422,3.422,0,0,0,1.6-.346,4.729,4.729,0,0,0,1.219-.916l.83.744a5.468,5.468,0,0,1-1.54,1.219,4.538,4.538,0,0,1-2.144.458,4.472,4.472,0,0,1-1.729-.337,4.3,4.3,0,0,1-1.422-.952,4.547,4.547,0,0,1-.969-1.478,4.928,4.928,0,0,1-.359-1.9,5.151,5.151,0,0,1,.321-1.824,4.583,4.583,0,0,1,.89-1.488,4.166,4.166,0,0,1,1.357-.994,4.318,4.318,0,0,1,3.484.009,3.873,3.873,0,0,1,1.315,1.012,4.393,4.393,0,0,1,.812,1.5,6.024,6.024,0,0,1,.277,1.851v.19a1.766,1.766,0,0,1-.017.225h-7.073a3.674,3.674,0,0,0,.346,1.289m5.378-2.274a4.613,4.613,0,0,0-.249-1.158,3.062,3.062,0,0,0-.55-.969,2.572,2.572,0,0,0-2.036-.916,2.519,2.519,0,0,0-1.083.233,2.811,2.811,0,0,0-.877.64,3.388,3.388,0,0,0-.619.96,4.114,4.114,0,0,0-.309,1.211Z" transform="translate(-75.488 -196.155)" fill="#333"/>
    <path id="Caminho_31718" data-name="Caminho 31718" d="M254.178,563.158h-7.384v4.133H253.4v1.245h-6.606v4.237h7.471v1.245h-8.837v-12.1h8.75Z" transform="translate(-84.987 -194.58)" fill="#333"/>
    <path id="Caminho_31719" data-name="Caminho 31719" d="M269.721,575.31a4.2,4.2,0,0,1-2.119.491,4.452,4.452,0,0,1-1.825-.371,4.55,4.55,0,0,1-2.414-2.482,4.738,4.738,0,0,1-.344-1.8,4.8,4.8,0,0,1,.344-1.807,4.68,4.68,0,0,1,.96-1.5,4.559,4.559,0,0,1,1.453-1.012,4.45,4.45,0,0,1,1.825-.371,5.123,5.123,0,0,1,1.158.12,4.263,4.263,0,0,1,1.747.848,6.751,6.751,0,0,1,.674.622l-.881.934a6.318,6.318,0,0,0-1.168-.951,2.841,2.841,0,0,0-1.548-.4,2.99,2.99,0,0,0-1.261.267,3.092,3.092,0,0,0-1.022.741,3.5,3.5,0,0,0-.674,1.1,3.753,3.753,0,0,0-.241,1.354,3.69,3.69,0,0,0,.25,1.363,3.479,3.479,0,0,0,.692,1.113,3.137,3.137,0,0,0,2.343,1.009,3.035,3.035,0,0,0,1.531-.38,5.142,5.142,0,0,0,1.2-.951l.848.8a6.09,6.09,0,0,1-1.53,1.256" transform="translate(-91.079 -196.155)" fill="#333"/>
    <path id="Caminho_31720" data-name="Caminho 31720" d="M288.016,572.922a4.744,4.744,0,0,1-.978,1.5,4.574,4.574,0,0,1-1.487,1.012,4.7,4.7,0,0,1-1.868.371,4.561,4.561,0,0,1-1.85-.371,4.681,4.681,0,0,1-1.471-1,4.513,4.513,0,0,1-.968-1.478,4.714,4.714,0,0,1-.346-1.8,4.775,4.775,0,0,1,.346-1.807,4.541,4.541,0,0,1,2.446-2.508,4.662,4.662,0,0,1,1.877-.371,4.615,4.615,0,0,1,1.859.371,4.676,4.676,0,0,1,1.479,1,4.5,4.5,0,0,1,.967,1.479,4.818,4.818,0,0,1-.007,3.606m-1.263-3.144a3.408,3.408,0,0,0-.7-1.112,3.352,3.352,0,0,0-1.055-.751,3.132,3.132,0,0,0-1.313-.275,3.243,3.243,0,0,0-1.332.267,2.964,2.964,0,0,0-1.03.741,3.561,3.561,0,0,0-.665,1.1,3.872,3.872,0,0,0,.007,2.717,3.4,3.4,0,0,0,.692,1.1,3.314,3.314,0,0,0,1.047.741,3.122,3.122,0,0,0,1.313.276,3.248,3.248,0,0,0,1.332-.267,3.089,3.089,0,0,0,1.036-.733,3.373,3.373,0,0,0,.676-1.1A3.751,3.751,0,0,0,287,571.14a3.69,3.69,0,0,0-.25-1.363" transform="translate(-96.629 -196.155)" fill="#333"/>
    <path id="Caminho_31721" data-name="Caminho 31721" d="M299.639,575.594h-1.332v-8.94h1.332v1.556a4.225,4.225,0,0,1,1.176-1.237,3.208,3.208,0,0,1,1.885-.51,3.773,3.773,0,0,1,1.444.26,2.98,2.98,0,0,1,1.072.735,3.253,3.253,0,0,1,.675,1.132,4.319,4.319,0,0,1,.233,1.453v5.551h-1.332v-5.223a2.876,2.876,0,0,0-.64-1.972,2.314,2.314,0,0,0-1.833-.726,2.831,2.831,0,0,0-1.064.2,2.489,2.489,0,0,0-.856.571,2.552,2.552,0,0,0-.562.89,3.162,3.162,0,0,0-.2,1.141Z" transform="translate(-103.298 -196.155)" fill="#333"/>
    <path id="Caminho_31722" data-name="Caminho 31722" d="M324.045,571.107a4.713,4.713,0,0,1-.978,1.5,4.559,4.559,0,0,1-1.486,1.012,4.686,4.686,0,0,1-1.868.372,4.553,4.553,0,0,1-1.85-.372,4.692,4.692,0,0,1-1.471-1,4.508,4.508,0,0,1-.967-1.479,4.7,4.7,0,0,1-.346-1.8,4.761,4.761,0,0,1,.346-1.806,4.536,4.536,0,0,1,2.446-2.508,4.663,4.663,0,0,1,1.877-.372,4.616,4.616,0,0,1,1.859.372,4.666,4.666,0,0,1,1.479,1,4.518,4.518,0,0,1,.967,1.479,4.821,4.821,0,0,1-.008,3.605m-1.262-3.144a3.406,3.406,0,0,0-.7-1.112,3.346,3.346,0,0,0-1.054-.751,3.131,3.131,0,0,0-1.314-.276,3.257,3.257,0,0,0-1.332.267,2.979,2.979,0,0,0-1.029.741,3.563,3.563,0,0,0-.665,1.1,3.868,3.868,0,0,0,.008,2.717,3.4,3.4,0,0,0,.692,1.1,3.3,3.3,0,0,0,1.047.742,3.134,3.134,0,0,0,1.314.276,3.257,3.257,0,0,0,1.332-.267,3.111,3.111,0,0,0,1.037-.733,3.371,3.371,0,0,0,.675-1.1,3.754,3.754,0,0,0,.241-1.354,3.688,3.688,0,0,0-.25-1.363m-4.367-4.473h-1.107l1.833-2.266h1.176l1.834,2.266h-1.141l-1.3-1.158Z" transform="translate(-109.106 -194.341)" fill="#333"/>
    <path id="Caminho_31723" data-name="Caminho 31723" d="M341.971,567.552a3.413,3.413,0,0,1,.683-.571,3.329,3.329,0,0,1,.856-.38,3.8,3.8,0,0,1,1.063-.138,3.147,3.147,0,0,1,2.439.96,3.753,3.753,0,0,1,.881,2.637v5.534h-1.331v-5.223a2.939,2.939,0,0,0-.614-2,2.145,2.145,0,0,0-1.7-.7,2.517,2.517,0,0,0-.952.181,2.224,2.224,0,0,0-.786.536,2.572,2.572,0,0,0-.536.873,3.265,3.265,0,0,0-.2,1.176v5.153h-1.313v-5.257a2.884,2.884,0,0,0-.615-1.963,2.125,2.125,0,0,0-1.687-.7,2.319,2.319,0,0,0-.986.207,2.375,2.375,0,0,0-.786.588,2.8,2.8,0,0,0-.528.891,3.2,3.2,0,0,0-.19,1.132v5.1h-1.332v-8.94h1.332v1.5a7.356,7.356,0,0,1,.493-.64,3.1,3.1,0,0,1,.615-.545,3.028,3.028,0,0,1,.777-.372,3.3,3.3,0,0,1,1-.138,3,3,0,0,1,1.8.51,3.3,3.3,0,0,1,1.073,1.271,5.479,5.479,0,0,1,.545-.692" transform="translate(-115.774 -196.155)" fill="#333"/>
    <path id="Caminho_31724" data-name="Caminho 31724" d="M360.867,561.516h1.522v1.47h-1.522Zm.087,3.424h1.332v8.94h-1.332Z" transform="translate(-124.961 -194.442)" fill="#333"/>
    <path id="Caminho_31725" data-name="Caminho 31725" d="M374.949,575.31a4.2,4.2,0,0,1-2.118.491,4.456,4.456,0,0,1-1.824-.371,4.553,4.553,0,0,1-2.412-2.482,4.714,4.714,0,0,1-.346-1.8,4.775,4.775,0,0,1,.346-1.807,4.658,4.658,0,0,1,.96-1.5,4.539,4.539,0,0,1,1.452-1.012,4.454,4.454,0,0,1,1.824-.371,5.134,5.134,0,0,1,1.159.12,4.335,4.335,0,0,1,.951.337,4.4,4.4,0,0,1,.8.511,7.13,7.13,0,0,1,.674.622l-.882.934a6.353,6.353,0,0,0-1.167-.951,2.849,2.849,0,0,0-1.548-.4,3,3,0,0,0-1.262.267,3.1,3.1,0,0,0-1.02.741,3.453,3.453,0,0,0-.674,1.1,3.867,3.867,0,0,0,.008,2.717,3.5,3.5,0,0,0,.692,1.113,3.143,3.143,0,0,0,2.343,1.009,3.031,3.031,0,0,0,1.531-.38,5.116,5.116,0,0,0,1.2-.951l.848.8a6.057,6.057,0,0,1-1.531,1.256" transform="translate(-127.517 -196.155)" fill="#333"/>
    <path id="Caminho_31726" data-name="Caminho 31726" d="M386.954,567.926a8.112,8.112,0,0,0-1.271.475l-.4-1.089a8.938,8.938,0,0,1,1.5-.545,6.927,6.927,0,0,1,1.747-.2,4.019,4.019,0,0,1,2.819.907,3.481,3.481,0,0,1,.986,2.689v5.464h-1.281v-1.349a4.383,4.383,0,0,1-1.253,1.072,3.833,3.833,0,0,1-1.981.467,4.362,4.362,0,0,1-1.219-.173,3.315,3.315,0,0,1-1.073-.527,2.713,2.713,0,0,1-.761-.873,2.509,2.509,0,0,1-.284-1.228,2.716,2.716,0,0,1,.277-1.254,2.459,2.459,0,0,1,.786-.908,3.759,3.759,0,0,1,1.21-.553,5.874,5.874,0,0,1,1.548-.19,9.432,9.432,0,0,1,1.5.1,10.819,10.819,0,0,1,1.245.276v-.312a2.3,2.3,0,0,0-.7-1.824,2.881,2.881,0,0,0-1.962-.614,5.351,5.351,0,0,0-1.444.181m-.426,3.675a1.612,1.612,0,0,0-.671,1.366,1.54,1.54,0,0,0,.181.761,1.752,1.752,0,0,0,.49.562,2.247,2.247,0,0,0,.715.354,2.957,2.957,0,0,0,.854.122,3.633,3.633,0,0,0,1.164-.182,3.086,3.086,0,0,0,.947-.5,2.376,2.376,0,0,0,.638-.761,2.064,2.064,0,0,0,.233-.977v-.865q-.5-.137-1.147-.259a8.017,8.017,0,0,0-1.473-.122,3.184,3.184,0,0,0-1.93.5" transform="translate(-133.141 -196.192)" fill="#333"/>
  </g>
</svg>
